# AST/ASF file generated using VICON BodyLanguage
# -----------------------------------------------
:version 1.10
:name VICON
:units
  mass 1.0
  length 0.45
  angle deg
:documentation
   .ast/.asf automatically generated from VICON data using
   VICON BodyBuilder and BodyLanguage model FoxedUp or BRILLIANT.MOD
:root
   order TX TY TZ RX RY RZ
   axis XYZ
   position 0 0 0  
   orientation 0 0 0 
:bonedata
  begin
     id 1 
     name lhipjoint
     direction 0.624716 -0.669793 0.401383 
     length 2.38238 
     axis 0 0 0  XYZ
  end
  begin
     id 2 
     name lfemur
     direction 0.34202 -0.939693 0  
     length 6.4574  
     axis 0 0 20  XYZ
    dof rx ry rz
    limits (-160.0 20.0)
           (-70.0 70.0)
           (-60.0 70.0)
  end
  begin
     id 3 
     name ltibia
     direction 0.34202 -0.939693 0   
     length 7.68739   
     axis 0 0 20   XYZ
    dof rx
    limits (-10.0 170.0)
  end
  begin
     id 4 
     name lfoot
     direction 0.0681309 -0.187188 0.979959   
     length 2.46615   
     axis -90 7.62852e-016 20   XYZ
    dof rx rz
    limits (-45.0 90.0)
           (-70.0 20.0)
  end
  begin
     id 5 
     name ltoes
     direction 1.53566e-011 -4.21819e-011 1   
     length 1.2376   
     axis -90 7.62852e-016 20   XYZ
    dof rx
    limits (-90.0 20.0)
  end
  begin
     id 6 
     name rhipjoint
     direction -0.644473 -0.655875 0.393043   
     length 2.43293  
     axis 0 0 0  XYZ 
  end
  begin
     id 7 
     name rfemur
     direction -0.34202 -0.939693 0   
     length 6.7025   
     axis 0 0 -20   XYZ
    dof rx ry rz
    limits (-160.0 20.0)
           (-70.0 70.0)
           (-70.0 60.0)
  end
  begin
     id 8 
     name rtibia
     direction -0.34202 -0.939693 0   
     length 7.80547   
     axis 0 0 -20   XYZ
    dof rx
    limits (-10.0 170.0)
 end
 begin
     id 9 
     name rfoot
     direction -0.0756734 -0.207911 0.975216   
     length 2.40315  
     axis -90 -7.62852e-016 -20   XYZ
    dof rx rz
    limits (-45.0 90.0)
           (-20.0 70.0)
  end
  begin
     id 10 
     name rtoes
     direction -1.5353e-011 -4.21879e-011 1   
     length 1.20477   
     axis -90 -7.62852e-016 -20   XYZ
    dof rx
    limits (-90.0 20.0)
  end
  begin
     id 11 
     name lowerback
     direction 0.0160353 0.987463 -0.157037   
     length 2.18572   
     axis 0 0 0   XYZ
    dof rx ry rz
    limits (-20.0 45.0)
           (-30.0 30.0)
           (-30.0 30.0)
  end
  begin
     id 12 
     name upperback
     direction -0.00499661 0.999756 0.0215076   
     length 2.18016   
     axis 0 0 0   XYZ
    dof rx ry rz
    limits (-20.0 45.0)
           (-30.0 30.0)
           (-30.0 30.0)
  end
  begin
     id 13 
     name thorax
     direction -0.00921346 0.995333 0.0960619   
     length 2.24923   
     axis 0 0 0   XYZ
    dof rx ry rz
    limits (-20.0 45.0)
           (-30.0 30.0)
           (-30.0 30.0)
  end
  begin
     id 14 
     name lowerneck
     direction 0.0274184 0.991181 0.12965   
     length 1.70911   
     axis 0 0 0   XYZ
    dof rx ry rz
    limits (-20.0 45.0)
           (-30.0 30.0)
           (-30.0 30.0)
  end
  begin
     id 15 
     name upperneck
     direction 0.0015627 0.999959 -0.00893559   
     length 1.69312   
     axis 0 0 0   XYZ
    dof rx ry rz
    limits (-20.0 45.0)
           (-30.0 30.0)
           (-30.0 30.0)
  end
  begin
     id 16
     name head
     direction -0.00230242 0.999856 -0.0168327  
     length 1.80241  
     axis 0 0 0   XYZ
    dof rx ry rz
    limits (-20.0 45.0)
           (-30.0 30.0)
           (-30.0 30.0)
  end
  begin
     id 17 
     name lclavicle
     direction 0.955523 0.290741 -0.0494489  
     length 3.84275  
     axis 0 0 0   XYZ
    dof ry rz
    limits (-20.0 10.0)
           (0.0 20.0)
  end
  begin
     id 18 
     name lhumerus
     direction 1 -4.48967e-011 -3.18382e-028   
     length 5.17714   
     axis 180 -30 -90   XYZ
    dof rx ry rz
    limits (-60.0 90.0)
           (-90.0 90.0)
           (-90.0 90.0)
  end
  begin
     id 19
     name lradius
     direction 1 -4.48968e-011 -2.22911e-027   
     length 3.43679   
     axis 180 -30 -90   XYZ
    dof rx
    limits (-10.0 170.0)
  end
  begin
     id 20
     name lwrist
     direction 1 -4.48951e-011 -6.32245e-027   
     length 1.7184   
     axis 3.57107e-015 90 90   XYZ
    dof ry
    limits (-180.0 0.0)
 end
  begin
     id 21 
     name lhand
     direction 1 -4.48924e-011 -1.26431e-026   
     length 0.573117   
     axis 8.06912e-015 90 90   XYZ
    dof rx rz
    limits (-90.0 90.0)
           (-45.0 45.0)
  end
  begin
     id 22 
     name lfingers
     direction 1 -4.49001e-011 -2.52965e-026   
     length 0.462062   
     axis 1.61381e-014 90 90   XYZ
    dof rx
    limits (0.0 90.0)
  end
  begin
     id 23
     name lthumb
     direction 0.707107 -6.35008e-011 0.707107   
     length 0.663431   
     axis -90 45 -1.62303e-014   XYZ
    dof rx rz
    limits (-45.0 45.0)
           (-45.0 45.0)
  end
  begin
     id 24 
     name rclavicle
     direction -0.963917 0.256881 -0.0698287   
     length 3.73057  
     axis 0 0 0   XYZ 
    dof ry rz
    limits (-10.0 20.0)
           (-20.0 0.0)
  end
  begin
     id 25 
     name rhumerus
     direction -1 -4.48962e-011 -2.73982e-027  
     length 5.23908   
     axis 180 30 90   XYZ
    dof rx ry rz
    limits (-90.0 60.0)
           (-90.0 90.0)
           (-90.0 90.0)
  end
  begin
     id 26 
     name rradius
     direction -1 -4.48968e-011 -4.33218e-027   
     length 3.46485   
     axis 180 30 90   XYZ
    dof rx
    limits (-10.0 170.0)
  end
  begin
     id 27 
     name rwrist
     direction -1 -4.48989e-011 -6.32372e-027   
     length 1.73243   
     axis 3.57107e-015 -90 -90   XYZ
    dof ry
    limits (-180.0 0.0)
  end
  begin
     id 28
     name rhand
     direction -1 -4.48948e-011 -1.26448e-026   
     length 0.608752   
     axis 8.06912e-015 -90 -90   XYZ
    dof rx rz
    limits (-90.0 90.0)
           (-45.0 45.0)
  end
  begin
     id 29
     name rfingers
     direction -1 -4.48962e-011 -2.52913e-026   
     length 0.490792   
     axis 1.61381e-014 -90 -90   XYZ
    dof rx
    limits (0.0 90.0)
  end
  begin
     id 30
     name rthumb
     direction -0.707107 -6.34878e-011 0.707107   
     length 0.704682   
     axis -90 -45 1.62303e-014   XYZ
    dof rx rz
    limits (-45.0 45.0)
           (-45.0 45.0)
  end
:hierarchy
  begin
    root lhipjoint rhipjoint lowerback
    lhipjoint lfemur
    lfemur ltibia
    ltibia lfoot
    lfoot ltoes
    rhipjoint rfemur
    rfemur rtibia
    rtibia rfoot
    rfoot rtoes
    lowerback upperback
    upperback thorax
    thorax lowerneck lclavicle rclavicle
    lowerneck upperneck
    upperneck head
    lclavicle lhumerus
    lhumerus lradius
    lradius lwrist
    lwrist lhand lthumb
    lhand lfingers
    rclavicle rhumerus
    rhumerus rradius
    rradius rwrist
    rwrist rhand rthumb
    rhand rfingers
  end

#!OML:ASF G:\JayActor3\Patient Classification 1\Patient 1\Session 6\male.ASF
:FULLY-SPECIFIED
:DEGREES
364
root 46.6693 15.8991 15.3113 -174.842 -20.804 -183.629
lowerback -1.02236 -3.81985 -3.32581
upperback 3.79844 -5.09299 -2.91931
thorax 4.51723 -2.68001 -1.42295
lowerneck 3.75989 5.05247 3.16991
upperneck -7.92502 6.9315 1.16786
head -3.1223 3.22428 -0.424804
rclavicle 2.88238e-014 4.92986e-014
rhumerus -41.5341 5.71605 -93.5171
rradius 41.5567
rwrist -1.18754
rhand -23.696 -9.71765
rfingers 7.12502
rthumb 2.771 -39.6794
lclavicle 2.88238e-014 4.92986e-014
lhumerus -18.771 -0.690694 82.88
lradius 61.3592
lwrist 4.22097
lhand -33.7186 -5.10138
lfingers 7.12502
lthumb -6.90796 24.7659
rfemur -50.1567 8.87699 20.8466
rtibia 36.2102
rfoot 13.692 -19.2075
rtoes -11.2815
lfemur 16.155 15.6202 -28.2288
ltibia -4.77083e-014
lfoot -11.7787 -5.43706
ltoes 5.25078
365
root 46.6342 15.904 15.245 -174.691 -20.9082 -183.58
lowerback -1.08917 -3.84561 -3.21799
upperback 3.77844 -5.1249 -2.90107
thorax 4.52628 -2.69052 -1.46908
lowerneck 3.78005 5.06787 3.19824
upperneck -8.08274 6.95255 1.15235
head -3.17847 3.22821 -0.438952
rclavicle -2.54444e-014 -2.70347e-014
rhumerus -41.4851 5.91396 -93.5936
rradius 41.8949
rwrist -1.12142
rhand -23.8233 -9.7017
rfingers 7.12502
rthumb 2.648 -39.665
lclavicle -2.54444e-014 -2.70347e-014
lhumerus -18.7913 -0.651153 82.9679
lradius 61.1404
lwrist 4.08981
lhand -34.4533 -5.66806
lfingers 7.12502
lthumb -7.61715 24.1748
rfemur -50.0033 8.65723 21.0692
rtibia 35.569
rfoot 13.8704 -19.3984
rtoes -11.1091
lfemur 16.2535 15.5419 -28.1583
ltibia -4.45278e-014
lfoot -11.6364 -5.49932
ltoes 4.77515
366
root 46.5977 15.9091 15.1776 -174.565 -21.0152 -183.516
lowerback -1.13555 -3.86921 -3.08897
upperback 3.76793 -5.15598 -2.8805
thorax 4.53186 -2.70016 -1.52329
lowerneck 3.78296 5.084 3.23803
upperneck -8.22935 6.97367 1.13145
head -3.22701 3.23227 -0.455982
rclavicle -9.34288e-015 -2.46493e-014
rhumerus -41.4254 6.09599 -93.6636
rradius 42.2466
rwrist -1.04853
rhand -23.9431 -9.66883
rfingers 7.12502
rthumb 2.53232 -39.6335
lclavicle -9.34288e-015 -2.46493e-014
lhumerus -18.8119 -0.630578 83.059
lradius 60.9062
lwrist 3.9556
lhand -35.1566 -6.23485
lfingers 7.12502
lthumb -8.29589 23.5823
rfemur -49.8175 8.37747 21.3519
rtibia 34.9663
rfoot 14.0163 -19.5593
rtoes -10.9884
lfemur 16.3833 15.4645 -28.064
ltibia 6.36111e-015
lfoot -11.4751 -5.57209
ltoes 4.40009
367
root 46.5606 15.9132 15.1087 -174.458 -21.1225 -183.458
lowerback -1.1571 -3.89282 -2.97136
upperback 3.76409 -5.18848 -2.85549
thorax 4.53165 -2.71129 -1.56515
lowerneck 3.77955 5.10508 3.26736
upperneck -8.3681 7.00053 1.1129
head -3.27215 3.23965 -0.470376
rclavicle 3.39922e-014 7.95139e-014
rhumerus -41.3566 6.26939 -93.7206
rradius 42.6094
rwrist -0.976537
rhand -24.067 -9.63426
rfingers 7.12502
rthumb 2.41264 -39.6004
lclavicle 3.39922e-014 7.95139e-014
lhumerus -18.8368 -0.616278 83.1583
lradius 60.6577
lwrist 3.81815
lhand -35.8267 -6.78325
lfingers 7.12502
lthumb -8.94256 23.0072
rfemur -49.6034 8.05743 21.6617
rtibia 34.4012
rfoot 14.1069 -19.6905
rtoes -10.9245
lfemur 16.5398 15.3909 -27.9775
ltibia -5.08889e-014
lfoot -11.3273 -5.58069
ltoes 3.59042
368
root 46.5229 15.9173 15.0383 -174.368 -21.2224 -183.395
lowerback -1.16622 -3.9093 -2.84811
upperback 3.76661 -5.21252 -2.83016
thorax 4.53046 -2.71825 -1.60868
lowerneck 3.77063 5.12496 3.31192
upperneck -8.50733 7.02548 1.08463
head -3.31554 3.24585 -0.490226
rclavicle 1.98785e-014 1.11319e-014
rhumerus -41.2793 6.41834 -93.7697
rradius 42.986
rwrist -0.920464
rhand -24.199 -9.60705
rfingers 7.12502
rthumb 2.28515 -39.5746
lclavicle 1.98785e-014 1.11319e-014
lhumerus -18.8708 -0.623823 83.2647
lradius 60.4006
lwrist 3.68404
lhand -36.4625 -7.33321
lfingers 7.12502
lthumb -9.55606 22.4301
rfemur -49.3676 7.72473 21.9913
rtibia 33.8765
rfoot 14.1263 -19.7987
rtoes -10.9014
lfemur 16.718 15.3256 -27.8745
ltibia -5.08889e-014
lfoot -11.1542 -5.61284
ltoes 2.91486
369
root 46.4846 15.9216 14.9661 -174.29 -21.3155 -183.323
lowerback -1.16921 -3.92439 -2.72311
upperback 3.77355 -5.23512 -2.79827
thorax 4.53081 -2.72457 -1.64611
lowerneck 3.77162 5.1458 3.35062
upperneck -8.65506 7.05142 1.04898
head -3.36376 3.25276 -0.512064
rclavicle -2.38542e-015 -1.66979e-014
rhumerus -41.1945 6.57287 -93.8147
rradius 43.3775
rwrist -0.897003
rhand -24.3502 -9.58179
rfingers 7.12502
rthumb 2.13913 -39.5508
lclavicle -2.38542e-015 -1.66979e-014
lhumerus -18.9116 -0.636833 83.3774
lradius 60.1306
lwrist 3.56621
lhand -37.0687 -7.86967
lfingers 7.12502
lthumb -10.1409 21.8659
rfemur -49.1156 7.40627 22.3254
rtibia 33.3899
rfoot 14.083 -19.8975
rtoes -10.8947
lfemur 16.9129 15.2668 -27.7483
ltibia -2.54444e-014
lfoot -10.9465 -5.68463
ltoes 2.45689
370
root 46.4463 15.9249 14.8915 -174.202 -21.3958 -183.256
lowerback -1.18874 -3.93636 -2.6167
upperback 3.77939 -5.25221 -2.76183
thorax 4.54151 -2.72877 -1.66972
lowerneck 3.78333 5.16737 3.38765
upperneck -8.81408 7.07847 1.00934
head -3.41793 3.25997 -0.535606
rclavicle 7.4743e-014 -3.26007e-014
rhumerus -41.104 6.73219 -93.8552
rradius 43.7835
rwrist -0.917225
rhand -24.4973 -9.56532
rfingers 7.12502
rthumb 1.99712 -39.5357
lclavicle 7.4743e-014 -3.26007e-014
lhumerus -18.9639 -0.658809 83.4957
lradius 59.8518
lwrist 3.46521
lhand -37.6429 -8.40949
lfingers 7.12502
lthumb -10.6949 21.2983
rfemur -48.8706 7.13241 22.6301
rtibia 32.9402
rfoot 13.9542 -20.0357
rtoes -10.8188
lfemur 17.1033 15.2191 -27.6318
ltibia 6.36111e-015
lfoot -10.7439 -5.72007
ltoes 1.63145
371
root 46.4074 15.9282 14.8148 -174.119 -21.4587 -183.172
lowerback -1.21971 -3.93714 -2.49645
upperback 3.78839 -5.25422 -2.72149
thorax 4.56115 -2.72493 -1.69727
lowerneck 3.80169 5.18404 3.43406
upperneck -8.97878 7.09924 0.962888
head -3.47494 3.26376 -0.563105
rclavicle 7.196e-014 4.29375e-014
rhumerus -41.0143 6.9002 -93.8967
rradius 44.2137
rwrist -0.979226
rhand -24.6428 -9.55305
rfingers 7.12502
rthumb 1.85657 -39.5247
lclavicle 7.196e-014 4.29375e-014
lhumerus -19.0141 -0.713686 83.6165
lradius 59.5555
lwrist 3.38717
lhand -38.1915 -8.93638
lfingers 7.12502
lthumb -11.2239 20.7434
rfemur -48.6196 6.90348 22.9337
rtibia 32.5271
rfoot 13.777 -20.193
rtoes -10.7167
lfemur 17.3036 15.1871 -27.4845
ltibia -9.54166e-015
lfoot -10.5092 -5.80063
ltoes 0.9782
372
root 46.3676 15.9313 14.7359 -174.023 -21.5163 -183.093
lowerback -1.26811 -3.94028 -2.38415
upperback 3.79395 -5.25838 -2.67846
thorax 4.58807 -2.72226 -1.71908
lowerneck 3.82956 5.20279 3.48306
upperneck -9.15167 7.12271 0.906737
head -3.53625 3.26889 -0.594865
rclavicle -7.15625e-015 1.59028e-015
rhumerus -40.9237 7.09581 -93.9438
rradius 44.6602
rwrist -1.06219
rhand -24.7889 -9.54459
rfingers 7.12502
rthumb 1.71547 -39.5174
lclavicle -7.15625e-015 1.59028e-015
lhumerus -19.0733 -0.776559 83.7353
lradius 59.2455
lwrist 3.32164
lhand -38.7202 -9.46057
lfingers 7.12502
lthumb -11.7338 20.1908
rfemur -48.3779 6.70165 23.2112
rtibia 32.1522
rfoot 13.5563 -20.3736
rtoes -10.5547
lfemur 17.5001 15.1569 -27.339
ltibia -2.22639e-014
lfoot -10.2524 -5.90183
ltoes 0.336677
373
root 46.327 15.9338 14.6551 -173.913 -21.5746 -183.034
lowerback -1.32297 -3.94077 -2.28729
upperback 3.79684 -5.25848 -2.64114
thorax 4.6168 -2.71809 -1.73848
lowerneck 3.86142 5.21711 3.54555
upperneck -9.32173 7.14053 0.841506
head -3.59671 3.27121 -0.631811
rclavicle -1.64991e-014 -4.21423e-014
rhumerus -40.8369 7.29545 -93.9935
rradius 45.1251
rwrist -1.13235
rhand -24.9365 -9.55072
rfingers 7.12502
rthumb 1.57288 -39.5247
lclavicle -1.64991e-014 -4.21423e-014
lhumerus -19.1388 -0.860348 83.8561
lradius 58.9167
lwrist 3.26375
lhand -39.2358 -10.0073
lfingers 7.12502
lthumb -12.231 19.6151
rfemur -48.1385 6.49474 23.4667
rtibia 31.813
rfoot 13.3258 -20.5421
rtoes -10.3748
lfemur 17.6964 15.123 -27.2119
ltibia -1.59028e-014
lfoot -9.9768 -6.00403
ltoes -0.404318
